<?xml version="1.0" standalone="no"?>
<!DOCTYPE svg PUBLIC "-//W3C//DTD SVG 20010904//EN"
 "http://www.w3.org/TR/2001/REC-SVG-20010904/DTD/svg10.dtd">
<svg version="1.0" xmlns="http://www.w3.org/2000/svg"
 width="1042.000000pt" height="284.000000pt" viewBox="0 0 1042.000000 284.000000"
 preserveAspectRatio="xMidYMid meet">

<g transform="translate(0.000000,284.000000) scale(0.100000,-0.100000)"
fill="#000000" stroke="none">
<path d="M140 1435 l0 -1205 945 0 945 0 0 1205 0 1205 -945 0 -945 0 0 -1205z
m1770 1014 c0 -39 -5 -79 -11 -90 -6 -11 -186 -289 -401 -617 -215 -328 -429
-654 -474 -724 l-83 -127 50 -37 c43 -31 52 -35 63 -23 7 8 197 295 421 639
224 344 413 632 421 640 12 12 14 -2 14 -99 0 -66 -5 -121 -12 -134 -6 -12
-135 -211 -286 -442 -493 -752 -445 -674 -419 -684 13 -5 44 -12 68 -16 l44
-6 294 451 c162 248 298 453 303 456 4 3 8 -45 8 -107 0 -133 22 -89 -236
-481 -102 -154 -181 -278 -177 -276 5 3 56 28 115 58 l107 53 93 140 93 140 3
-143 c1 -79 -1 -147 -5 -151 -16 -15 -377 -191 -439 -215 -138 -52 -244 -59
-335 -24 -29 12 -136 75 -235 141 -100 65 -199 126 -220 135 -107 46 -241 57
-344 29 -30 -8 -58 -15 -62 -15 -5 0 -8 360 -8 800 l0 800 825 0 825 0 0 -71z
m-1314 -1650 c32 -12 128 -69 213 -126 252 -170 322 -198 465 -190 123 7 243
47 454 152 93 47 172 85 176 85 3 0 6 -83 6 -185 l0 -185 -825 0 -825 0 0 210
c0 207 0 209 22 221 79 43 226 51 314 18z"/>
<path d="M6090 2170 c-26 -16 2 -45 47 -48 30 -2 44 2 58 18 16 18 17 23 5 30
-10 6 -20 3 -33 -11 -22 -24 -32 -24 -49 0 -10 14 -18 17 -28 11z"/>
<path d="M10130 2170 c-12 -7 -11 -12 5 -30 24 -26 92 -25 109 3 17 27 -13 42
-32 16 -17 -24 -27 -24 -49 0 -13 14 -23 17 -33 11z"/>
<path d="M3370 1955 c0 -128 1 -135 20 -135 18 0 20 7 20 60 0 56 1 60 23 60
29 0 53 -25 63 -65 9 -41 22 -55 50 -55 26 0 34 27 10 36 -8 3 -16 18 -20 34
-3 17 -16 39 -29 50 l-24 21 28 29 c16 16 29 36 29 44 0 9 5 16 10 16 6 0 10
9 10 20 0 13 -7 20 -19 20 -23 0 -37 -16 -46 -53 -8 -30 -39 -57 -67 -57 -15
0 -18 9 -18 55 0 48 -2 55 -20 55 -19 0 -20 -7 -20 -135z"/>
<path d="M3656 2064 c-75 -76 -45 -231 48 -248 44 -8 99 13 121 48 39 59 27
167 -22 206 -39 31 -113 28 -147 -6z m128 -36 c22 -31 21 -120 -1 -146 -45
-53 -110 -29 -120 45 -11 80 15 123 72 123 24 0 39 -7 49 -22z"/>
<path d="M3952 2074 c-33 -23 -52 -67 -52 -124 0 -65 22 -108 65 -126 43 -18
57 -18 101 1 31 13 34 17 24 35 -10 19 -13 19 -33 5 -30 -21 -51 -19 -82 8
-34 29 -42 83 -20 131 19 39 45 51 95 44 32 -5 51 19 28 34 -22 13 -102 9
-126 -8z"/>
<path d="M4140 2071 c0 -16 8 -20 43 -23 l42 -3 3 -112 c2 -105 4 -113 22
-113 19 0 20 7 20 115 l0 115 45 0 c38 0 45 3 45 20 0 19 -7 20 -110 20 -102
0 -110 -1 -110 -19z"/>
<path d="M4420 1956 c0 -129 1 -136 20 -136 17 0 20 7 20 50 l0 50 39 0 c55 0
92 33 94 83 2 57 -27 80 -108 85 l-65 4 0 -136z m114 78 c32 -31 6 -74 -45
-74 -28 0 -29 2 -29 45 0 43 1 45 29 45 16 0 37 -7 45 -16z"/>
<path d="M4693 2075 c-31 -22 -57 -96 -50 -147 15 -109 124 -153 198 -79 52
52 47 177 -8 220 -31 25 -108 28 -140 6z m111 -38 c26 -19 33 -104 12 -144
-29 -57 -107 -48 -122 13 -9 34 1 111 16 129 15 19 70 20 94 2z"/>
<path d="M4951 1978 c-12 -62 -25 -123 -28 -135 -4 -18 -1 -23 15 -23 22 0 27
10 38 75 12 70 19 69 45 -5 14 -39 29 -71 34 -72 5 0 20 30 34 66 22 62 41 85
41 51 0 -7 5 -37 11 -65 8 -39 15 -50 30 -50 24 0 24 -7 -6 140 -14 68 -25
124 -25 126 0 2 -6 4 -13 4 -8 0 -22 -32 -36 -78 -12 -43 -26 -84 -30 -91 -5
-8 -19 20 -36 78 -16 50 -34 91 -40 91 -8 0 -21 -44 -34 -112z"/>
<path d="M5281 2064 c-37 -31 -54 -87 -45 -146 14 -82 92 -126 168 -94 33 14
36 18 26 36 -10 19 -13 19 -33 5 -32 -22 -55 -19 -88 14 -21 22 -29 39 -29 66
0 75 43 115 109 102 21 -5 31 -2 35 10 9 23 -11 33 -66 33 -35 0 -54 -6 -77
-26z"/>
<path d="M5490 1955 l0 -135 25 0 c24 0 25 3 25 60 0 52 3 60 18 60 25 0 48
-27 64 -75 10 -32 18 -41 41 -43 21 -3 27 1 27 16 0 11 -7 22 -15 26 -8 3 -15
15 -15 27 0 11 -13 34 -30 49 -28 26 -28 28 -10 33 11 3 27 21 35 41 9 20 20
36 25 36 6 0 10 9 10 21 0 16 -5 20 -27 17 -21 -2 -30 -11 -38 -35 -13 -40
-43 -73 -67 -73 -15 0 -18 8 -18 55 0 52 -1 55 -25 55 l-25 0 0 -135z"/>
<path d="M5792 2074 c-50 -35 -68 -127 -37 -200 17 -42 69 -68 118 -59 66 13
97 57 97 138 0 63 -11 93 -44 119 -27 22 -104 23 -134 2z m114 -45 c14 -16 19
-36 18 -76 0 -48 -4 -59 -28 -79 -34 -30 -48 -30 -81 -1 -22 18 -26 31 -27 75
0 69 21 102 66 102 21 0 40 -8 52 -21z"/>
<path d="M6030 1950 c0 -77 4 -140 9 -140 5 0 42 43 83 96 l73 97 3 -92 c2
-83 5 -91 22 -91 19 0 20 8 20 135 0 82 -4 135 -10 135 -5 0 -40 -41 -77 -90
l-68 -91 -3 91 c-3 88 -3 90 -27 90 l-25 0 0 -140z"/>
<path d="M6420 1955 l0 -135 25 0 25 0 0 115 0 115 60 0 c53 0 60 2 60 20 0
18 -7 20 -85 20 l-85 0 0 -135z"/>
<path d="M6680 2063 c-54 -49 -59 -166 -9 -220 46 -48 140 -33 179 29 17 27
20 45 17 97 -3 57 -7 67 -35 92 -45 40 -109 41 -152 2z m124 -35 c20 -29 21
-117 1 -145 -18 -26 -59 -37 -84 -23 -43 22 -52 130 -15 171 24 27 79 25 98
-3z"/>
<path d="M6972 2074 c-34 -23 -52 -67 -52 -126 0 -71 26 -113 78 -128 65 -17
133 6 112 39 -7 12 -13 12 -40 1 -61 -25 -119 38 -104 115 9 51 44 78 93 73
40 -3 59 11 45 33 -9 15 -108 10 -132 -7z"/>
<path d="M7199 1991 c48 -94 49 -100 32 -115 -10 -9 -27 -16 -39 -16 -15 0
-22 -6 -22 -20 0 -16 7 -20 32 -20 44 0 98 60 136 152 47 115 47 118 19 118
-18 0 -27 -7 -31 -25 -4 -14 -16 -52 -28 -83 l-21 -57 -38 83 c-33 71 -41 82
-64 82 l-25 0 49 -99z"/>
<path d="M7496 2024 c-19 -77 -60 -162 -81 -171 -11 -3 -15 -21 -15 -59 0 -47
3 -54 19 -54 16 0 20 8 23 38 l3 37 93 3 92 3 0 -41 c0 -33 3 -40 20 -40 18 0
20 7 20 55 0 42 -3 55 -15 55 -12 0 -15 20 -15 120 l0 120 -64 0 -64 0 -16
-66z m94 -74 l0 -100 -56 0 c-49 0 -56 2 -50 18 3 9 18 54 33 99 24 71 31 83
51 83 21 0 22 -3 22 -100z"/>
<path d="M7791 2068 c-5 -13 -27 -69 -50 -126 -23 -56 -41 -107 -41 -112 0 -6
11 -10 24 -10 17 0 26 7 30 25 6 23 11 25 56 25 45 0 52 -3 60 -25 7 -17 17
-25 34 -25 l24 0 -53 132 c-29 73 -58 134 -64 136 -6 2 -15 -7 -20 -20z m37
-107 c16 -52 16 -51 -18 -51 -16 0 -30 3 -30 6 0 17 24 84 30 84 4 0 12 -17
18 -39z"/>
<path d="M7970 1956 l0 -136 25 0 c23 0 25 3 25 50 l0 50 40 0 c55 0 90 34 90
88 0 57 -25 76 -111 80 l-69 4 0 -136z m124 78 c32 -31 6 -74 -45 -74 -28 0
-29 2 -29 45 0 43 1 45 29 45 16 0 37 -7 45 -16z"/>
<path d="M8264 2079 c-53 -27 -81 -137 -50 -197 25 -49 53 -66 107 -66 53 0
84 19 74 46 -6 14 -10 14 -35 2 -35 -18 -75 -10 -95 19 -23 32 -19 109 6 141
19 24 28 27 68 25 40 -3 46 -1 46 16 0 17 -8 20 -50 22 -27 1 -60 -3 -71 -8z"/>
<path d="M8440 2070 c0 -17 7 -20 45 -20 l45 0 0 -115 c0 -108 1 -115 20 -115
18 0 20 8 22 113 l3 112 48 3 c39 3 47 6 47 23 0 18 -8 19 -115 19 -108 0
-115 -1 -115 -20z"/>
<path d="M8720 1955 l0 -135 64 0 c49 0 69 5 90 21 33 26 36 79 6 109 -19 19
-19 22 -5 44 12 17 13 30 6 49 -14 35 -40 47 -105 47 l-56 0 0 -135z m119 71
c4 -22 -23 -46 -51 -46 -14 0 -18 8 -18 36 0 34 1 35 32 32 23 -2 34 -9 37
-22z m4 -97 c19 -27 10 -58 -20 -70 -47 -17 -53 -13 -53 41 0 49 1 50 29 50
19 0 35 -8 44 -21z"/>
<path d="M8960 1955 l0 -135 85 0 c78 0 85 2 85 20 0 18 -7 20 -60 20 l-60 0
0 40 0 40 45 0 c38 0 45 3 45 20 0 17 -7 20 -45 20 -45 0 -45 0 -45 35 l0 35
60 0 c53 0 60 2 60 20 0 18 -7 20 -85 20 l-85 0 0 -135z"/>
<path d="M9190 1955 l0 -135 25 0 c24 0 25 3 25 60 l0 60 55 0 55 0 0 -60 c0
-57 1 -60 25 -60 l25 0 0 135 0 135 -25 0 c-24 0 -25 -3 -25 -55 l0 -55 -55 0
-55 0 0 55 c0 52 -1 55 -25 55 l-25 0 0 -135z"/>
<path d="M9470 1955 c0 -128 1 -135 20 -135 18 0 20 7 20 60 l0 60 60 0 60 0
0 -60 c0 -53 2 -60 20 -60 19 0 20 7 20 135 0 128 -1 135 -20 135 -18 0 -20
-7 -20 -55 l0 -56 -57 3 -58 3 -3 53 c-3 44 -6 52 -23 52 -18 0 -19 -8 -19
-135z"/>
<path d="M9740 1955 l0 -135 65 0 c57 0 69 3 90 25 25 24 32 65 19 100 -9 22
-57 45 -94 45 -29 0 -30 1 -30 50 0 47 -2 50 -25 50 l-25 0 0 -135z m124 -21
c31 -30 10 -70 -41 -80 l-33 -6 0 51 c0 50 1 51 29 51 16 0 37 -7 45 -16z"/>
<path d="M9960 1955 l0 -135 25 0 25 0 0 135 0 135 -25 0 -25 0 0 -135z"/>
<path d="M10080 1950 c0 -77 3 -140 8 -139 4 0 40 43 80 96 l72 96 0 -91 c0
-91 0 -92 25 -92 l25 0 0 135 c0 102 -3 135 -13 135 -7 0 -44 -42 -82 -92
l-70 -93 -3 93 c-2 84 -4 92 -22 92 -19 0 -20 -8 -20 -140z"/>
<path d="M5001 1189 c-96 -126 -178 -232 -183 -235 -4 -3 -8 99 -8 225 l0 231
-60 0 -60 0 0 -350 0 -350 28 0 c24 1 49 30 201 231 96 126 178 232 183 235 4
3 8 -99 8 -225 l0 -231 60 0 60 0 0 350 0 350 -27 0 c-25 -1 -50 -30 -202
-231z"/>
<path d="M5473 1413 l-73 -4 0 -345 0 -346 148 4 c137 3 151 5 204 31 64 31
91 62 107 124 22 82 -9 165 -80 211 l-36 23 39 38 c35 35 38 43 38 93 0 135
-102 185 -347 171z m186 -111 c56 -28 60 -97 9 -135 -18 -14 -44 -20 -85 -21
l-58 -1 -3 74 c-2 41 -1 80 2 88 8 19 94 17 135 -5z m31 -267 c38 -20 50 -43
50 -99 0 -36 -6 -52 -29 -78 -28 -31 -33 -33 -110 -36 l-81 -4 0 116 0 116 70
0 c44 0 82 -6 100 -15z"/>
<path d="M7377 1406 c-144 -52 -230 -208 -213 -388 14 -152 89 -261 202 -294
74 -21 186 -14 248 16 64 30 71 42 50 82 -30 59 -33 60 -71 30 -29 -21 -49
-27 -102 -30 -83 -4 -124 16 -165 82 -25 40 -30 60 -34 130 -5 104 14 171 67
226 58 61 153 75 233 34 27 -14 28 -13 48 27 12 22 19 47 16 54 -14 38 -202
58 -279 31z"/>
<path d="M8287 1403 c-8 -10 -90 -116 -181 -237 l-166 -219 0 232 0 231 -60 0
-60 0 0 -350 0 -350 23 0 c17 0 61 51 202 237 l180 237 3 -232 2 -232 60 0 60
0 0 350 0 350 -23 0 c-13 0 -31 -8 -40 -17z"/>
<path d="M3430 1171 c66 -133 120 -247 120 -255 0 -35 -103 -96 -162 -96 -15
0 -18 -9 -18 -51 l0 -52 58 6 c132 11 225 104 332 330 43 89 130 324 130 348
0 5 -26 9 -59 9 l-59 0 -46 -142 c-25 -79 -58 -170 -74 -202 l-28 -59 -90 199
-90 199 -67 3 -68 3 121 -240z"/>
<path d="M4000 1065 l0 -345 60 0 60 0 0 155 0 155 140 0 140 0 0 -155 0 -155
60 0 60 0 0 345 0 345 -60 0 -60 0 0 -135 0 -135 -140 0 -140 0 0 135 0 135
-60 0 -60 0 0 -345z"/>
<path d="M6010 1065 l0 -345 215 0 215 0 0 55 0 55 -155 0 -155 0 0 105 0 105
115 0 115 0 0 50 0 50 -115 0 -116 0 3 83 3 82 158 3 157 3 0 49 0 50 -220 0
-220 0 0 -345z"/>
<path d="M6600 1065 l0 -345 60 0 60 0 0 130 0 129 29 -5 c46 -9 161 14 210
43 63 36 95 109 89 203 -4 76 -21 109 -77 147 -46 31 -115 43 -251 43 l-120 0
0 -345z m280 219 c49 -30 64 -89 34 -145 -19 -39 -68 -59 -139 -59 l-55 0 0
116 0 117 65 -6 c36 -4 79 -14 95 -23z"/>
<path d="M8480 1360 l0 -49 108 -3 107 -3 3 -292 2 -293 60 0 60 0 2 293 3
292 113 3 112 3 0 49 0 50 -285 0 -285 0 0 -50z"/>
<path d="M9180 1065 l0 -345 221 0 220 0 -3 53 -3 52 -157 3 -158 3 0 104 0
105 115 0 115 0 0 50 0 50 -115 0 -116 0 3 83 3 82 158 3 157 3 0 49 0 50
-220 0 -220 0 0 -345z"/>
<path d="M9730 1360 l0 -49 108 -3 107 -3 3 -292 2 -293 60 0 60 0 0 295 0
295 115 0 115 0 0 50 0 50 -285 0 -285 0 0 -50z"/>
</g>
</svg>
